<?xml version="1.0" encoding="UTF-8"?>
<svg id="Layer_2" data-name="Layer 2" xmlns="http://www.w3.org/2000/svg" width="121.65" height="121.65" xmlns:xlink="http://www.w3.org/1999/xlink" viewBox="0 0 121.65 121.65">
  <defs>
    <style>
      .cls-1, .cls-2 {
        fill: none;
      }

      .cls-3 {
        fill: #fedb89;
      }

      .cls-2 {
        stroke: #31194e;
        stroke-miterlimit: 10;
        stroke-width: 3px;
      }

      .cls-4 {
        clip-path: url(#clippath);
      }

      .cls-5 {
        fill: #fdb714;
      }
    </style>
    <clipPath id="clippath">
      <circle class="cls-1" cx="60.83" cy="60.82" r="45.49"/>
    </clipPath>
  </defs>
  <g id="Vrstva_2" data-name="Vrstva 2">
    <g>
      <g>
        <line class="cls-2" x1="63.31" y1="121.59" x2="61.92" y2="87.58"/>
        <line class="cls-2" x1="38.38" y1="117.35" x2="50.94" y2="85.71"/>
        <line class="cls-2" x1="17.33" y1="103.33" x2="41.67" y2="79.54"/>
        <line class="cls-2" x1="3.8" y1="81.97" x2="35.72" y2="70.13"/>
        <line class="cls-2" x1=".13" y1="56.95" x2="34.1" y2="59.12"/>
        <line class="cls-2" x1="6.96" y1="32.6" x2="37.11" y2="48.4"/>
        <line class="cls-2" x1="23.1" y1="13.13" x2="44.21" y2="39.82"/>
        <line class="cls-2" x1="45.76" y1="1.91" x2="54.19" y2="34.88"/>
        <line class="cls-2" x1="71.03" y1=".87" x2="65.32" y2="34.43"/>
        <line class="cls-2" x1="94.53" y1="10.21" x2="75.67" y2="38.54"/>
        <line class="cls-2" x1="112.21" y1="28.29" x2="83.45" y2="46.5"/>
        <line class="cls-2" x1="121" y1="52" x2="87.32" y2="56.94"/>
        <line class="cls-2" x1="119.38" y1="77.24" x2="86.61" y2="68.05"/>
        <line class="cls-2" x1="107.64" y1="99.64" x2="81.44" y2="77.92"/>
        <line class="cls-2" x1="87.81" y1="115.32" x2="72.71" y2="84.82"/>
      </g>
      <g>
        <circle class="cls-3" cx="60.83" cy="60.82" r="45.49"/>
        <g class="cls-4">
          <circle class="cls-5" cx="65.41" cy="67.7" r="45.49"/>
        </g>
        <circle class="cls-2" cx="60.83" cy="60.82" r="45.49"/>
      </g>
    </g>
  </g>
</svg>