<?xml version="1.0" encoding="UTF-8"?>
<svg id="Layer_2" data-name="Layer 2" xmlns="http://www.w3.org/2000/svg" width="162.9" height="107.7" xmlns:xlink="http://www.w3.org/1999/xlink" viewBox="0 0 162.9 107.7">
  <defs>
    <style>
      .cls-1, .cls-2, .cls-3 {
        fill: none;
      }

      .cls-4 {
        fill: #fedb89;
      }

      .cls-5 {
        fill: #dbdbdb;
      }

      .cls-2 {
        stroke-miterlimit: 10;
      }

      .cls-2, .cls-3 {
        stroke: #31194e;
        stroke-width: 3px;
      }

      .cls-3 {
        stroke-linecap: round;
        stroke-linejoin: round;
      }

      .cls-6 {
        clip-path: url(#clippath-1);
      }

      .cls-7 {
        fill: #fff;
      }

      .cls-8 {
        clip-path: url(#clippath);
      }

      .cls-9 {
        fill: #fdb714;
      }
    </style>
    <clipPath id="clippath">
      <circle class="cls-1" cx="49.52" cy="49.51" r="37.04"/>
    </clipPath>
    <clipPath id="clippath-1">
      <path class="cls-1" d="M161.4,84.25c.26,9.47-7.53,17.22-17.01,17.22H24.36c-17.55,0-23.86-23.85-8.25-31.88,7.85-4.05,16.85-1.17,18.49,9.63,4.58-35.35,33.38-45.47,42.54-24.88,9.82-35.99,45.17-29.45,44.51,17.02,16.36-34.29,39.09-11.6,39.75,12.89Z"/>
    </clipPath>
  </defs>
  <g id="Vrstva_2" data-name="Vrstva 2">
    <g>
      <g>
        <g>
          <line class="cls-2" x1="14.1" y1="84.12" x2="33.92" y2="64.75"/>
          <line class="cls-2" x1="3.08" y1="66.73" x2="29.07" y2="57.09"/>
          <line class="cls-2" x1=".1" y1="46.35" x2="27.75" y2="48.12"/>
          <line class="cls-2" x1="5.65" y1="26.53" x2="30.2" y2="39.39"/>
          <line class="cls-2" x1="18.79" y1="10.67" x2="35.99" y2="32.41"/>
          <line class="cls-2" x1="37.25" y1="1.54" x2="44.11" y2="28.39"/>
          <line class="cls-2" x1="57.82" y1=".7" x2="53.17" y2="28.02"/>
          <line class="cls-2" x1="76.96" y1="8.3" x2="61.6" y2="31.36"/>
          <line class="cls-2" x1="91.35" y1="23.02" x2="67.94" y2="37.85"/>
          <line class="cls-2" x1="98.51" y1="42.33" x2="71.09" y2="46.35"/>
          <line class="cls-2" x1="97.2" y1="62.88" x2="70.51" y2="55.4"/>
          <line class="cls-2" x1="87.64" y1="81.12" x2="66.3" y2="63.43"/>
        </g>
        <g>
          <circle class="cls-4" cx="49.52" cy="49.51" r="37.04"/>
          <g class="cls-8">
            <circle class="cls-9" cx="53.25" cy="55.11" r="37.04"/>
          </g>
          <circle class="cls-2" cx="49.52" cy="49.51" r="37.04"/>
        </g>
      </g>
      <g>
        <path class="cls-7" d="M161.4,84.25c.26,9.47-7.53,17.22-17.01,17.22H24.36c-17.55,0-23.86-23.85-8.25-31.88,7.85-4.05,16.85-1.17,18.49,9.63,4.58-35.35,33.38-45.47,42.54-24.88,9.82-35.99,45.17-29.45,44.51,17.02,16.36-34.29,39.09-11.6,39.75,12.89Z"/>
        <g class="cls-6">
          <path class="cls-5" d="M34.76,107.7s6.2-33.38,24.87-33.38c13.09,0,15.6,11.52,15.6,11.52,0,0,8.54-23.24,21.38-22.64,14.07.65,18.98,24.88,18.98,24.88,0,0,7.64-13.67,18.42-12.55,16.6,1.74,17.91,32.17,17.91,32.17H34.76Z"/>
        </g>
        <path class="cls-3" d="M24.36,101.47h120.03c9.48,0,17.27-7.75,17.01-17.22-.66-24.49-23.39-47.18-39.75-12.89.66-46.47-34.69-53.01-44.51-17.02-9.16-20.59-37.96-10.47-42.54,24.88-1.64-10.8-10.64-13.68-18.49-9.63-15.61,8.03-9.3,31.88,8.25,31.88Z"/>
      </g>
    </g>
  </g>
</svg>