<?xml version="1.0" encoding="UTF-8"?>
<svg id="Layer_2" data-name="Layer 2" xmlns="http://www.w3.org/2000/svg" width="178.05" height="88.22" xmlns:xlink="http://www.w3.org/1999/xlink" viewBox="0 0 178.05 88.22">
  <defs>
    <style>
      .cls-1, .cls-2 {
        fill: none;
      }

      .cls-3 {
        fill: #9c9c9c;
      }

      .cls-2 {
        stroke: #31194e;
        stroke-linecap: round;
        stroke-linejoin: round;
        stroke-width: 3px;
      }

      .cls-4 {
        fill: #b9b9b9;
      }

      .cls-5 {
        clip-path: url(#clippath);
      }
    </style>
    <clipPath id="clippath">
      <path class="cls-1" d="M176.54,61.61c.3,10.75-8.55,19.55-19.31,19.55H20.96c-19.92,0-27.09-27.08-9.37-36.19,8.91-4.6,19.13-1.33,20.99,10.93,5.2-40.13,37.89-51.62,48.29-28.24,11.15-40.86,51.28-33.43,50.53,19.32,18.57-38.93,44.38-13.17,45.13,14.63Z"/>
    </clipPath>
  </defs>
  <g id="Vrstva_2" data-name="Vrstva 2">
    <g>
      <path class="cls-4" d="M176.54,61.61c.3,10.75-8.55,19.55-19.31,19.55H20.96c-19.92,0-27.09-27.08-9.37-36.19,8.91-4.6,19.13-1.33,20.99,10.93,5.2-40.13,37.89-51.62,48.29-28.24,11.15-40.86,51.28-33.43,50.53,19.32,18.57-38.93,44.38-13.17,45.13,14.63Z"/>
      <g class="cls-5">
        <path class="cls-3" d="M32.78,88.22s7.03-37.9,28.24-37.9c14.86,0,17.71,13.07,17.71,13.07,0,0,9.69-26.38,24.27-25.7,15.98.74,21.55,28.25,21.55,28.25,0,0,8.68-15.52,20.91-14.24,18.84,1.97,20.33,36.52,20.33,36.52H32.78Z"/>
      </g>
      <path class="cls-2" d="M20.96,81.16h136.26c10.76,0,19.61-8.8,19.31-19.55-.75-27.8-26.55-53.56-45.13-14.63.75-52.75-39.38-60.18-50.53-19.32-10.4-23.37-43.09-11.89-48.29,28.24-1.86-12.26-12.08-15.53-20.99-10.93-17.72,9.12-10.56,36.19,9.37,36.19Z"/>
    </g>
  </g>
</svg>