<?xml version="1.0" encoding="UTF-8"?>
<svg id="Layer_2" data-name="Layer 2" xmlns="http://www.w3.org/2000/svg" width="127.21" height="138.95" viewBox="0 0 127.21 138.95">
  <defs>
    <style>
      .cls-1 {
        fill: #e0eaff;
        stroke: #31194e;
        stroke-linecap: round;
        stroke-linejoin: round;
        stroke-width: 3px;
      }
    </style>
  </defs>
  <g id="Vrstva_2" data-name="Vrstva 2">
    <polygon class="cls-1" points="125.71 97.62 109.7 88.59 120.12 85.69 116.89 74.13 94.92 80.25 75.6 69.35 94.7 58.07 116.79 63.75 119.78 52.13 109.31 49.44 125.13 40.09 119.03 29.76 103.21 39.11 105.9 28.64 94.28 25.65 88.6 47.74 79.42 53.16 79.42 53.16 69.5 59.02 69.28 36.84 85.24 20.55 76.67 12.15 69.11 19.87 68.92 1.5 56.92 1.62 57.11 19.99 49.39 12.43 40.99 21 57.28 36.96 57.39 47.63 57.38 47.63 57.5 59.14 47.47 53.48 47.47 53.48 38.18 48.25 32.06 26.28 20.5 29.5 23.4 39.91 7.4 30.88 1.5 41.33 17.5 50.36 7.09 53.26 10.31 64.82 32.29 58.7 51.6 69.59 32.51 80.88 10.42 75.19 7.43 86.82 17.9 89.51 2.08 98.85 8.18 109.19 24 99.84 21.31 110.31 32.93 113.3 38.61 91.21 47.79 85.78 47.79 85.79 57.71 79.93 57.93 102.11 41.96 118.4 50.53 126.8 58.1 119.08 58.28 137.45 70.28 137.33 70.1 118.96 77.82 126.52 86.22 117.95 69.93 101.99 69.82 91.32 69.82 91.32 69.71 79.81 79.74 85.47 79.74 85.47 89.03 90.7 95.15 112.68 106.71 109.45 103.81 99.04 119.81 108.07 125.71 97.62"/>
  </g>
</svg>