<?xml version="1.0" encoding="UTF-8"?>
<svg id="Layer_2" data-name="Layer 2" xmlns="http://www.w3.org/2000/svg" width="157.19" height="136.42" xmlns:xlink="http://www.w3.org/1999/xlink" viewBox="0 0 157.19 136.42">
  <defs>
    <style>
      .cls-1, .cls-2 {
        fill: none;
      }

      .cls-3, .cls-2 {
        stroke: #31194e;
        stroke-linecap: round;
        stroke-linejoin: round;
        stroke-width: 3px;
      }

      .cls-3, .cls-4 {
        fill: #fff;
      }

      .cls-5 {
        fill: #dbdbdb;
      }

      .cls-6 {
        clip-path: url(#clippath);
      }
    </style>
    <clipPath id="clippath">
      <path class="cls-1" d="M155.69,54.45c.26,9.47-7.53,17.22-17.01,17.22H18.65c-17.55,0-23.86-23.85-8.25-31.88,7.85-4.05,16.85-1.17,18.49,9.63C33.47,14.07,62.27,3.95,71.43,24.54c9.82-35.99,45.17-29.45,44.51,17.02,16.36-34.29,39.09-11.6,39.75,12.89Z"/>
    </clipPath>
  </defs>
  <g id="Vrstva_2" data-name="Vrstva 2">
    <g>
      <g>
        <path class="cls-4" d="M155.69,54.45c.26,9.47-7.53,17.22-17.01,17.22H18.65c-17.55,0-23.86-23.85-8.25-31.88,7.85-4.05,16.85-1.17,18.49,9.63C33.47,14.07,62.27,3.95,71.43,24.54c9.82-35.99,45.17-29.45,44.51,17.02,16.36-34.29,39.09-11.6,39.75,12.89Z"/>
        <g class="cls-6">
          <path class="cls-5" d="M29.05,77.89s6.2-33.38,24.87-33.38c13.09,0,15.6,11.52,15.6,11.52,0,0,8.54-23.24,21.38-22.64,14.07.65,18.98,24.88,18.98,24.88,0,0,7.64-13.67,18.42-12.55,16.6,1.74,17.91,32.17,17.91,32.17H29.05Z"/>
        </g>
        <path class="cls-2" d="M18.65,71.67h120.03c9.48,0,17.27-7.75,17.01-17.22-.66-24.49-23.39-47.18-39.75-12.89.66-46.47-34.69-53.01-44.51-17.02C62.27,3.95,33.47,14.07,28.89,49.42c-1.64-10.8-10.64-13.68-18.49-9.63-15.61,8.03-9.3,31.88,8.25,31.88Z"/>
      </g>
      <g>
        <path class="cls-3" d="M26.15,93.19h104.88c2.49,0,4.5-2.01,4.5-4.5s-2.01-4.5-4.5-4.5H26.15c-2.49,0-4.5,2.01-4.5,4.5s2.01,4.5,4.5,4.5"/>
        <path class="cls-3" d="M47.72,114.14h53.91c2.49,0,4.5-2.01,4.5-4.5s-2.01-4.5-4.5-4.5h-53.91c-2.49,0-4.5,2.01-4.5,4.5s2.01,4.5,4.5,4.5"/>
        <path class="cls-3" d="M19.07,134.92h95.85c2.49,0,4.5-2.01,4.5-4.5s-2.01-4.5-4.5-4.5H19.07c-2.49,0-4.5,2.01-4.5,4.5s2.01,4.5,4.5,4.5"/>
      </g>
    </g>
  </g>
</svg>