<?xml version="1.0" encoding="UTF-8"?>
<svg id="Layer_2" data-name="Layer 2" xmlns="http://www.w3.org/2000/svg" width="64.53" height="152.8" viewBox="0 0 64.53 152.8">
  <defs>
    <style>
      .cls-1 {
        fill: #dbdbdb;
      }

      .cls-2 {
        fill: none;
      }

      .cls-2, .cls-3 {
        stroke: #31194e;
        stroke-linecap: round;
        stroke-linejoin: round;
        stroke-width: 3px;
      }

      .cls-4 {
        fill: #ff82ae;
      }

      .cls-3 {
        fill: #dbe4ff;
      }

      .cls-5 {
        fill: #31194e;
      }
    </style>
  </defs>
  <g id="Vrstva_2" data-name="Vrstva 2">
    <g>
      <polyline class="cls-3" points="1.5 151.3 1.5 1.5 10.5 1.5 10.5 151.3"/>
      <line class="cls-2" x1="16.13" y1="44.79" x2="10.5" y2="1.5"/>
      <line class="cls-2" x1="10.5" y1="1.5" x2="51.04" y2="30.59"/>
      <g>
        <g>
          <polygon class="cls-1" points="60.57 95.4 63.03 114.21 37.85 120.79 32.55 102.25 34.19 101.78 60.57 95.4"/>
          <polygon class="cls-1" points="54.89 51.88 57.58 72.48 28.28 83.67 27.32 83.94 21.7 64.28 54.88 51.88 54.89 51.88"/>
          <polygon class="cls-4" points="57.58 72.48 60.57 95.4 34.19 101.78 32.55 102.25 27.32 83.94 28.28 83.67 57.58 72.48"/>
          <path class="cls-4" d="M52.35,32.48l2.54,19.4h0l-33.18,12.4-5.57-19.49c1.04,2.89,9.97,2.33,19.95-1.27,9.22-3.32,16.11-8.05,16.27-11.04Z"/>
          <path class="cls-5" d="M52.26,31.78l.09.7c-.16,2.99-7.05,7.72-16.27,11.04-9.98,3.6-18.91,4.16-19.95,1.27s6.2-8.14,16.18-11.74c9.98-3.59,18.91-4.16,19.95-1.27Z"/>
        </g>
        <g>
          <polyline class="cls-2" points="52.26 31.78 52.35 32.48 54.89 51.88 57.58 72.48 60.57 95.4 63.03 114.21 37.85 120.79 32.55 102.25 27.32 83.94 21.7 64.28 16.13 44.79"/>
          <line class="cls-2" x1="21.7" y1="64.28" x2="54.88" y2="51.88"/>
          <line class="cls-2" x1="28.28" y1="83.67" x2="57.58" y2="72.48"/>
          <path class="cls-2" d="M52.26,31.78c.08.22.11.45.09.7-.16,2.99-7.05,7.72-16.27,11.04-9.98,3.6-18.91,4.16-19.95,1.27s6.2-8.14,16.18-11.74c9.98-3.59,18.91-4.16,19.95-1.27Z"/>
          <line class="cls-2" x1="34.19" y1="101.78" x2="60.57" y2="95.4"/>
        </g>
      </g>
    </g>
  </g>
</svg>