<?xml version="1.0" encoding="UTF-8"?>
<svg id="Layer_2" data-name="Layer 2" xmlns="http://www.w3.org/2000/svg" width="157.9" height="57.22" viewBox="0 0 157.9 57.22">
  <defs>
    <style>
      .cls-1 {
        fill: #dbe4ff;
        stroke: #31194e;
        stroke-linecap: round;
        stroke-linejoin: round;
        stroke-width: 3px;
      }
    </style>
  </defs>
  <g id="Vrstva_2" data-name="Vrstva 2">
    <g>
      <path class="cls-1" d="M6,10.5c3.24,0,5.43.43,7.26,1.02,1.37.45,2.56,1.02,3.85,1.7.96.51,1.98,1.09,3.13,1.69,1.72.9,3.74,1.83,6.2,2.5,2.46.67,5.32,1.08,8.75,1.08,4.05,0,7.33-.57,10.07-1.47,2.05-.67,3.77-1.51,5.26-2.3,1.12-.6,2.12-1.16,3.07-1.66,1.44-.75,2.77-1.35,4.41-1.8,1.65-.45,3.64-.76,6.37-.76,3.24,0,5.43.43,7.26,1.02,1.37.45,2.56,1.02,3.85,1.7.96.51,1.98,1.09,3.13,1.69,1.72.9,3.74,1.83,6.2,2.5,2.46.67,5.32,1.08,8.75,1.08,4.05,0,7.33-.57,10.07-1.47,2.05-.67,3.77-1.51,5.26-2.3,1.12-.6,2.12-1.16,3.07-1.66,1.44-.75,2.77-1.35,4.41-1.8,1.65-.45,3.64-.76,6.37-.76,3.24,0,5.44.43,7.26,1.02,1.37.45,2.56,1.02,3.85,1.7.96.51,1.98,1.09,3.13,1.69,1.72.9,3.74,1.83,6.2,2.5,2.46.67,5.33,1.08,8.75,1.08,2.49,0,4.5-2.01,4.5-4.5s-2.01-4.5-4.5-4.5c-3.24,0-5.43-.43-7.26-1.02-1.37-.45-2.56-1.02-3.85-1.7-.96-.51-1.98-1.09-3.13-1.69-1.72-.9-3.74-1.83-6.2-2.5-2.46-.67-5.33-1.08-8.75-1.08-4.05,0-7.33.57-10.07,1.47-2.05.67-3.77,1.51-5.26,2.3-1.12.6-2.12,1.16-3.07,1.66-1.44.75-2.77,1.35-4.41,1.8-1.65.45-3.64.76-6.37.76-3.24,0-5.43-.43-7.26-1.02-1.37-.45-2.56-1.02-3.85-1.7-.96-.51-1.98-1.09-3.13-1.69-1.72-.9-3.74-1.83-6.2-2.5-2.46-.67-5.32-1.08-8.75-1.08-4.05,0-7.33.57-10.07,1.47-2.05.67-3.77,1.51-5.26,2.3-1.12.6-2.12,1.16-3.07,1.66-1.44.75-2.77,1.35-4.41,1.8-1.65.45-3.64.76-6.37.76-3.24,0-5.43-.43-7.26-1.02-1.37-.45-2.56-1.02-3.85-1.7-.96-.51-1.98-1.09-3.13-1.69-1.72-.9-3.74-1.83-6.2-2.5-2.46-.67-5.32-1.08-8.75-1.08C3.51,1.5,1.5,3.51,1.5,6s2.01,4.5,4.5,4.5Z"/>
      <path class="cls-1" d="M36.9,47.73c3.24,0,5.43.43,7.26,1.02,1.37.45,2.56,1.02,3.85,1.7.96.51,1.98,1.09,3.13,1.69,1.72.9,3.74,1.83,6.2,2.5,2.46.67,5.32,1.08,8.75,1.08,4.05,0,7.33-.57,10.07-1.47,2.05-.67,3.77-1.51,5.26-2.3,1.12-.6,2.12-1.16,3.07-1.66,1.44-.75,2.77-1.35,4.41-1.8,1.65-.45,3.64-.76,6.37-.76,3.24,0,5.43.43,7.26,1.02,1.37.45,2.56,1.02,3.85,1.7.96.51,1.98,1.09,3.13,1.69,1.72.9,3.74,1.83,6.2,2.5,2.46.67,5.32,1.08,8.75,1.08,2.49,0,4.5-2.01,4.5-4.5s-2.01-4.5-4.5-4.5c-3.24,0-5.43-.43-7.26-1.02-1.37-.45-2.56-1.02-3.85-1.7-.96-.51-1.98-1.09-3.13-1.69-1.72-.9-3.74-1.83-6.2-2.5-2.46-.67-5.32-1.08-8.75-1.08-4.05,0-7.33.57-10.07,1.47-2.05.67-3.77,1.51-5.26,2.3-1.12.6-2.12,1.16-3.07,1.66-1.44.75-2.77,1.35-4.41,1.8-1.65.45-3.64.76-6.37.76-3.24,0-5.43-.43-7.26-1.02-1.37-.45-2.56-1.02-3.85-1.7-.96-.51-1.98-1.09-3.13-1.69-1.72-.9-3.74-1.83-6.2-2.5-2.46-.67-5.32-1.08-8.75-1.08-2.49,0-4.5,2.01-4.5,4.5s2.01,4.5,4.5,4.5Z"/>
    </g>
  </g>
</svg>