<?xml version="1.0" encoding="UTF-8"?>
<svg id="Layer_2" data-name="Layer 2" xmlns="http://www.w3.org/2000/svg" width="177.06" height="149.3" viewBox="0 0 177.06 149.3">
  <defs>
    <style>
      .cls-1 {
        fill: #dbe4ff;
        stroke: #31194e;
        stroke-linecap: round;
        stroke-linejoin: round;
        stroke-width: 3px;
      }
    </style>
  </defs>
  <g id="Vrstva_2" data-name="Vrstva 2">
    <g>
      <path class="cls-1" d="M5.98,61.66c13.62.05,26.69.36,38.72.36,14.35,0,27.21-.42,37.97-2.32,5.38-.96,10.24-2.29,14.52-4.22,4.27-1.93,7.99-4.5,10.8-7.93,4.84-5.88,7.1-12.57,7.09-18.94,0-7.21-2.83-13.97-7.6-18.94-2.39-2.49-5.27-4.53-8.53-5.95-3.26-1.42-6.89-2.21-10.73-2.21-.77,0-1.55.03-2.33.1-5.56.46-10.81,2.73-14.97,6.27-2.08,1.78-3.89,3.88-5.29,6.27-1.4,2.39-2.39,5.07-2.8,7.95-.16,1.12-.24,2.22-.24,3.29,0,2.67.49,5.17,1.39,7.38,1.35,3.33,3.58,6.01,6.25,7.83,2.67,1.83,5.78,2.84,8.96,2.85,1.55,0,3.12-.25,4.63-.77,1.51-.52,2.96-1.33,4.25-2.4,1.55-1.3,2.67-2.91,3.41-4.62.73-1.72,1.09-3.54,1.09-5.36,0-1.81-.35-3.64-1.14-5.36-.79-1.72-2.04-3.34-3.76-4.53-2.04-1.42-4.85-.91-6.26,1.14-1.42,2.04-.91,4.85,1.14,6.26.29.2.51.46.71.89.19.42.32.99.32,1.61,0,.62-.13,1.28-.37,1.82-.23.55-.55.97-.9,1.25-.45.37-.92.63-1.44.81-.52.18-1.08.27-1.68.27-1.64.01-3.57-.75-5.04-2.26-.74-.75-1.37-1.68-1.82-2.8-.45-1.12-.73-2.44-.74-4.01,0-.63.05-1.3.15-2.01.24-1.65.81-3.22,1.66-4.68,1.28-2.19,3.23-4.14,5.56-5.57,2.32-1.43,5.01-2.34,7.67-2.56.54-.04,1.07-.07,1.6-.07,2.61,0,4.99.53,7.14,1.46,6.42,2.78,10.73,9.37,10.73,16.64-.01,4.28-1.45,8.84-5.04,13.23-1.74,2.12-4.21,3.92-7.55,5.44-5,2.28-11.9,3.78-20.19,4.64-8.29.86-17.97,1.11-28.58,1.11-11.89,0-24.96-.31-38.69-.36-2.49,0-4.51,2-4.52,4.48,0,2.49,2,4.51,4.48,4.52Z"/>
      <path class="cls-1" d="M79.02,78.42c11.98.04,23.47.31,34.08.31,12.64,0,23.98-.37,33.5-2.05,4.76-.85,9.08-2.03,12.91-3.75,3.81-1.72,7.16-4.03,9.7-7.13,4.33-5.26,6.37-11.28,6.36-17.01,0-6.49-2.54-12.56-6.84-17.04-2.15-2.24-4.75-4.08-7.68-5.36-2.93-1.28-6.21-1.99-9.66-1.99-.69,0-1.39.03-2.1.09-5.01.42-9.73,2.46-13.48,5.65-1.87,1.6-3.5,3.5-4.77,5.66-1.27,2.16-2.16,4.59-2.54,7.19-.15,1.01-.22,2.01-.22,2.98,0,2.42.45,4.68,1.26,6.7,1.22,3.03,3.26,5.47,5.69,7.14,2.43,1.67,5.27,2.6,8.19,2.6,1.42,0,2.86-.23,4.25-.71,1.39-.48,2.72-1.22,3.91-2.21,1.44-1.2,2.47-2.7,3.15-4.27.67-1.58,1-3.25,1.01-4.93,0-1.66-.32-3.35-1.06-4.94-.73-1.59-1.9-3.1-3.49-4.2-2.04-1.42-4.85-.91-6.26,1.14s-.91,4.85,1.14,6.26c.17.12.3.27.44.56.13.29.24.72.23,1.19,0,.48-.1.98-.28,1.39-.18.41-.41.71-.64.9-.34.29-.7.48-1.1.62-.39.14-.83.21-1.3.21-1.29.01-2.86-.6-4.05-1.82-.6-.61-1.11-1.37-1.49-2.29-.37-.92-.61-2.01-.61-3.32,0-.53.04-1.09.13-1.69.2-1.38.67-2.69,1.39-3.92,1.08-1.84,2.73-3.5,4.71-4.71,1.98-1.22,4.26-1.99,6.51-2.17.46-.04.92-.06,1.36-.06,2.22,0,4.25.45,6.07,1.24,5.45,2.36,9.12,7.96,9.11,14.14-.01,3.64-1.23,7.52-4.32,11.3-1.46,1.78-3.56,3.33-6.45,4.64-4.32,1.97-10.34,3.29-17.6,4.03-7.27.76-15.76.98-25.09.97-10.45,0-21.95-.27-34.04-.31-2.49,0-4.51,2-4.52,4.48,0,2.49,2,4.51,4.48,4.52Z"/>
      <path class="cls-1" d="M39.32,96.64c13.73-.05,26.81-.36,38.69-.36,14.15,0,26.64.45,36.39,2.19,4.87.86,9.05,2.05,12.39,3.56,3.35,1.52,5.82,3.32,7.55,5.44,3.6,4.4,5.03,8.95,5.04,13.24,0,4.84-1.91,9.39-5.09,12.7-1.59,1.66-3.49,3-5.64,3.93-2.14.93-4.53,1.46-7.14,1.46-.52,0-1.06-.02-1.6-.07-3.55-.28-7.14-1.81-9.86-4.15-1.36-1.16-2.51-2.52-3.37-3.98-.86-1.46-1.42-3.03-1.66-4.68-.1-.71-.15-1.38-.15-2.01,0-1.57.28-2.89.74-4.01.68-1.68,1.76-2.93,3-3.79,1.24-.85,2.64-1.27,3.87-1.27.6,0,1.16.09,1.68.27.52.18.99.44,1.44.81.34.28.66.71.9,1.25.23.54.37,1.2.37,1.82,0,.62-.13,1.19-.32,1.61-.2.42-.42.69-.71.89-2.04,1.42-2.55,4.22-1.14,6.26s4.22,2.55,6.26,1.14c1.72-1.19,2.98-2.81,3.76-4.53.79-1.73,1.14-3.55,1.14-5.36,0-1.83-.36-3.65-1.09-5.36-.73-1.71-1.85-3.33-3.41-4.62-1.29-1.08-2.74-1.88-4.25-2.4-1.51-.53-3.08-.77-4.63-.77-4.24.01-8.35,1.79-11.46,4.95-1.55,1.58-2.85,3.51-3.74,5.73-.9,2.22-1.39,4.71-1.39,7.38,0,1.07.08,2.17.24,3.29.41,2.87,1.4,5.56,2.8,7.95,2.11,3.59,5.11,6.53,8.6,8.68,3.49,2.15,7.49,3.52,11.66,3.86.78.06,1.56.1,2.33.1,3.84,0,7.47-.79,10.73-2.21,9.79-4.28,16.13-14.07,16.13-24.89.01-6.37-2.25-13.06-7.09-18.94-2.82-3.43-6.53-6-10.8-7.93-6.42-2.89-14.15-4.46-22.97-5.39-8.82-.92-18.76-1.16-29.51-1.16-12.04,0-25.11.31-38.73.36-2.49,0-4.49,2.03-4.48,4.52,0,2.49,2.03,4.49,4.52,4.48Z"/>
    </g>
  </g>
</svg>