<?xml version="1.0" encoding="UTF-8"?>
<svg id="Layer_2" data-name="Layer 2" xmlns="http://www.w3.org/2000/svg" width="132.82" height="93.98" xmlns:xlink="http://www.w3.org/1999/xlink" viewBox="0 0 132.82 93.98">
  <defs>
    <style>
      .cls-1, .cls-2 {
        fill: none;
      }

      .cls-3 {
        fill: #fedb89;
      }

      .cls-2 {
        stroke-width: 3px;
      }

      .cls-2, .cls-4 {
        stroke: #31194e;
        stroke-linecap: round;
        stroke-linejoin: round;
      }

      .cls-4 {
        stroke-width: 2px;
      }

      .cls-4, .cls-5 {
        fill: #fdb714;
      }

      .cls-6 {
        clip-path: url(#clippath);
      }
    </style>
    <clipPath id="clippath">
      <path class="cls-1" d="M74.22,80.74c-18.64,0-33.75-15.11-33.75-33.75S57.77,13.32,76.41,13.32c-4.04-3.67-8.45-6.63-13.33-8.66-4.87-2.04-10.21-3.16-16.09-3.16C21.86,1.5,1.5,21.87,1.5,46.99s20.36,45.49,45.49,45.49c11.82,0,22.59-4.51,30.68-11.91-1.13.11-2.29.17-3.45.17Z"/>
    </clipPath>
  </defs>
  <g id="Vrstva_2" data-name="Vrstva 2">
    <g>
      <g>
        <path class="cls-3" d="M74.22,80.74c1.16,0,2.32-.06,3.45-.17-8.09,7.4-18.86,11.91-30.68,11.91C21.86,92.48,1.5,72.11,1.5,46.99S21.86,1.5,46.99,1.5c5.88,0,11.22,1.12,16.09,3.16,4.88,2.03,9.29,4.99,13.33,8.66-18.64,0-35.94,15.04-35.94,33.67s15.11,33.75,33.75,33.75Z"/>
        <g class="cls-6">
          <path class="cls-5" d="M78.37,84.07c1.16,0,2.32-.06,3.45-.17-8.09,7.4-18.86,11.91-30.68,11.91-25.13,0-45.49-20.37-45.49-45.49S26.01,4.83,51.14,4.83c5.88,0,11.22,1.12,16.09,3.16,4.88,2.03,9.29,4.99,13.33,8.66-18.64,0-35.94,15.04-35.94,33.67s15.11,33.75,33.75,33.75Z"/>
        </g>
        <path class="cls-2" d="M77.67,80.57c-1.13.11-2.29.17-3.45.17-18.64,0-33.75-15.11-33.75-33.75S57.77,13.32,76.41,13.32c-4.04-3.67-8.45-6.63-13.33-8.66-4.87-2.04-10.21-3.16-16.09-3.16C21.86,1.5,1.5,21.87,1.5,46.99s20.36,45.49,45.49,45.49c11.82,0,22.59-4.51,30.68-11.91Z"/>
      </g>
      <polygon class="cls-4" points="102.41 14.09 104.8 21.49 112.2 23.87 104.8 26.26 102.41 33.66 100.03 26.26 92.63 23.87 100.03 21.49 102.41 14.09"/>
      <polygon class="cls-4" points="122.03 53.81 124.42 61.21 131.82 63.59 124.42 65.98 122.03 73.38 119.65 65.98 112.25 63.59 119.65 61.21 122.03 53.81"/>
      <polygon class="cls-4" points="85.2 40.71 87.58 48.11 94.98 50.5 87.58 52.88 85.2 60.28 82.81 52.88 75.41 50.5 82.81 48.11 85.2 40.71"/>
    </g>
  </g>
</svg>