<?xml version="1.0" encoding="UTF-8"?>
<svg id="Layer_2" data-name="Layer 2" xmlns="http://www.w3.org/2000/svg" xmlns:xlink="http://www.w3.org/1999/xlink" viewBox="0 0 203.99 100.81">
  <defs>
    <style>
      .cls-1 {
        fill: url(#linear-gradient-5);
      }

      .cls-1, .cls-2, .cls-3, .cls-4, .cls-5, .cls-6, .cls-7, .cls-8, .cls-9, .cls-10, .cls-11, .cls-12, .cls-13, .cls-14, .cls-15 {
        fill-rule: evenodd;
      }

      .cls-2 {
        fill: url(#linear-gradient-7);
      }

      .cls-3 {
        fill: url(#linear-gradient-8);
      }

      .cls-4 {
        fill: url(#linear-gradient-2);
      }

      .cls-5 {
        fill: url(#linear-gradient-3);
      }

      .cls-6 {
        fill: url(#linear-gradient-4);
      }

      .cls-7 {
        fill: url(#linear-gradient-9);
      }

      .cls-8 {
        fill: url(#linear-gradient-6);
      }

      .cls-9 {
        fill: #f5ae2c;
      }

      .cls-10 {
        fill: #abadb0;
      }

      .cls-11 {
        fill: #373538;
      }

      .cls-12 {
        fill: url(#linear-gradient-10);
      }

      .cls-13 {
        fill: url(#linear-gradient-11);
      }

      .cls-14 {
        fill: url(#linear-gradient-12);
      }

      .cls-15 {
        fill: url(#linear-gradient);
      }
    </style>
    <linearGradient id="linear-gradient" x1="45.89" y1="72.69" x2="34.15" y2="93.04" gradientUnits="userSpaceOnUse">
      <stop offset="0" stop-color="#4f4e53"/>
      <stop offset="1" stop-color="#000"/>
    </linearGradient>
    <linearGradient id="linear-gradient-2" x1="68.12" y1="74.59" x2="57.92" y2="92.26" xlink:href="#linear-gradient"/>
    <linearGradient id="linear-gradient-3" x1="65.23" y1="56.37" x2="56.56" y2="71.39" xlink:href="#linear-gradient"/>
    <linearGradient id="linear-gradient-4" x1="83.05" y1="58.97" x2="75.32" y2="72.34" xlink:href="#linear-gradient"/>
    <linearGradient id="linear-gradient-5" x1="86.87" y1="76.14" x2="77.89" y2="91.69" xlink:href="#linear-gradient"/>
    <linearGradient id="linear-gradient-6" x1="44.33" y1="53.26" x2="34.46" y2="70.36" xlink:href="#linear-gradient"/>
    <linearGradient id="linear-gradient-7" x1="146.28" y1="72.7" x2="134.53" y2="93.04" xlink:href="#linear-gradient"/>
    <linearGradient id="linear-gradient-8" x1="168.51" y1="74.59" x2="158.31" y2="92.26" xlink:href="#linear-gradient"/>
    <linearGradient id="linear-gradient-9" x1="165.61" y1="56.36" x2="156.94" y2="71.39" xlink:href="#linear-gradient"/>
    <linearGradient id="linear-gradient-10" x1="183.43" y1="58.97" x2="175.71" y2="72.34" xlink:href="#linear-gradient"/>
    <linearGradient id="linear-gradient-11" x1="187.25" y1="76.14" x2="178.27" y2="91.69" xlink:href="#linear-gradient"/>
    <linearGradient id="linear-gradient-12" x1="144.72" y1="53.26" x2="134.84" y2="70.36" xlink:href="#linear-gradient"/>
  </defs>
  <g id="Layer_1-2" data-name="Layer 1">
    <g>
      <polygon class="cls-10" points="22.36 44.92 22.36 98.29 100.39 98.29 89.02 53.13 22.36 44.92"/>
      <polygon class="cls-10" points="124.28 44.92 124.28 98.29 202.3 98.29 190.94 53.13 124.28 44.92"/>
      <g>
        <path class="cls-11" d="M88.24,56.02l-61.92-7.93v47.38h71.03l-9.11-39.45h0ZM24.16,42.44l66.29,8.49,1.68.22.41,1.78,10.3,44.56.77,3.33H15.63l.69-19.6-7.24,19.6H0l17.31-47.97.27-7.97,3.87-2.78,2.71.34Z"/>
        <g>
          <path class="cls-15" d="M49.14,74.57c-2.95-.18-5.95-.35-9.01-.52-3.12-.17-6.32-.36-9.57-.54v17.47h19.63c-.19-2.87-.37-5.67-.55-8.44-.17-2.71-.35-5.36-.51-7.97Z"/>
          <path class="cls-4" d="M70.18,75.78c-2.51-.15-5.09-.3-7.69-.45-2.67-.15-5.38-.3-8.15-.47.21,2.57.43,5.18.64,7.84.23,2.71.46,5.47.69,8.28h16.61c-.35-2.65-.72-5.25-1.09-7.79-.34-2.52-.68-4.98-1.02-7.4Z"/>
          <path class="cls-5" d="M69.52,71.05c-.32-2.31-.64-4.58-.96-6.8-.3-2.19-.6-4.35-.9-6.48-2.38-.29-4.8-.59-7.25-.9-2.51-.32-5.07-.63-7.67-.96.2,2.24.38,4.51.59,6.81.2,2.34.39,4.73.6,7.16,2.74.21,5.4.4,8.02.6,2.57.2,5.1.39,7.58.58Z"/>
          <path class="cls-6" d="M87.15,72.38c-.44-2.15-.87-4.29-1.29-6.39-.41-2.05-.83-4.08-1.23-6.1-2.1-.26-4.23-.52-6.37-.79-2.18-.27-4.41-.55-6.66-.84.31,2.1.65,4.23.98,6.39.35,2.2.68,4.44,1.03,6.7,2.36.18,4.68.35,6.95.53,2.24.16,4.42.33,6.59.49Z"/>
          <path class="cls-1" d="M89.45,83.73c-.48-2.34-.94-4.64-1.4-6.91-2.18-.13-4.42-.26-6.68-.39-2.3-.13-4.65-.27-7.03-.41.38,2.39.75,4.82,1.12,7.29.39,2.51.77,5.06,1.17,7.66h14.27c-.49-2.45-.98-4.86-1.46-7.24Z"/>
          <path class="cls-8" d="M48.8,69.48c-.17-2.47-.33-4.9-.49-7.28-.14-2.33-.29-4.64-.45-6.9-2.75-.34-5.54-.69-8.4-1.05-2.9-.37-5.87-.74-8.88-1.12v14.98c3.19.24,6.32.47,9.38.7,3.03.22,5.96.45,8.85.66Z"/>
        </g>
        <path class="cls-11" d="M188.61,56.02l-61.91-7.93v47.38h71.04l-9.13-39.45h0ZM124.54,42.44l66.31,8.49,1.66.22.41,1.78,10.3,44.56.77,3.33h-87.97l.68-19.6-7.24,19.6h-9.07l17.29-47.97.28-7.97,3.87-2.78,2.71.34Z"/>
        <g>
          <path class="cls-2" d="M149.52,74.57c-2.94-.18-5.94-.35-9-.52-3.12-.17-6.32-.36-9.56-.54v17.47h19.63c-.19-2.87-.37-5.67-.54-8.44-.18-2.71-.35-5.36-.53-7.97Z"/>
          <path class="cls-3" d="M170.57,75.78c-2.52-.15-5.1-.3-7.69-.45-2.67-.15-5.38-.3-8.15-.47.2,2.57.42,5.18.64,7.84.23,2.71.45,5.47.69,8.28h16.61c-.36-2.65-.73-5.25-1.08-7.79-.35-2.52-.69-4.98-1.03-7.4Z"/>
          <path class="cls-7" d="M169.9,71.05c-.31-2.31-.64-4.58-.95-6.8-.3-2.19-.6-4.35-.9-6.48-2.37-.29-4.81-.59-7.25-.9-2.51-.32-5.07-.63-7.67-.96.19,2.24.39,4.51.58,6.81.2,2.34.41,4.73.6,7.16,2.74.21,5.41.4,8.03.6,2.57.2,5.09.39,7.57.58Z"/>
          <path class="cls-12" d="M187.54,72.38c-.45-2.15-.87-4.29-1.3-6.39-.41-2.05-.82-4.08-1.23-6.1-2.1-.26-4.22-.52-6.36-.79-2.18-.27-4.4-.55-6.67-.84.32,2.1.66,4.23.98,6.39.35,2.2.69,4.44,1.04,6.7,2.36.18,4.68.35,6.94.53,2.23.16,4.42.33,6.6.49Z"/>
          <path class="cls-13" d="M189.82,83.73c-.46-2.34-.93-4.64-1.39-6.91-2.19-.13-4.41-.26-6.67-.39-2.3-.13-4.64-.27-7.03-.41.38,2.39.75,4.82,1.13,7.29.38,2.51.77,5.06,1.17,7.66h14.27c-.49-2.45-.98-4.86-1.46-7.24Z"/>
          <path class="cls-14" d="M149.19,69.48c-.18-2.47-.34-4.9-.49-7.28-.15-2.33-.3-4.64-.46-6.9-2.74-.34-5.54-.69-8.39-1.05-2.91-.37-5.88-.74-8.89-1.12v14.98c3.19.24,6.33.47,9.39.7,3.01.22,5.95.45,8.85.66Z"/>
        </g>
        <polygon class="cls-9" points="176.09 6.59 181.92 6.59 178.94 0 176.09 6.59 176.09 6.59"/>
        <polygon class="cls-9" points="168.57 10.26 173.61 7.35 167.75 3.12 168.57 10.26 168.57 10.26"/>
        <polygon class="cls-9" points="163.89 17.18 166.8 12.14 159.6 11.43 163.89 17.18 163.89 17.18"/>
        <polygon class="cls-9" points="163.31 25.53 163.31 19.71 156.71 22.69 163.31 25.53 163.31 25.53"/>
        <polygon class="cls-9" points="166.96 33.05 164.05 28.01 159.83 33.88 166.96 33.05 166.96 33.05"/>
        <polygon class="cls-9" points="173.9 37.73 168.84 34.82 168.13 42.02 173.9 37.73 173.9 37.73"/>
        <polygon class="cls-9" points="182.25 38.33 176.41 38.33 179.39 44.92 182.25 38.33 182.25 38.33"/>
        <polygon class="cls-9" points="189.77 34.66 184.71 37.58 190.59 41.79 189.77 34.66 189.77 34.66"/>
        <polygon class="cls-9" points="194.44 27.73 191.53 32.78 198.73 33.49 194.44 27.73 194.44 27.73"/>
        <polygon class="cls-9" points="195.03 19.38 195.03 25.21 201.63 22.22 195.03 19.38 195.03 19.38"/>
        <polygon class="cls-9" points="191.37 11.86 194.29 16.91 198.5 11.03 191.37 11.86 191.37 11.86"/>
        <polygon class="cls-9" points="184.44 7.18 189.49 10.09 190.19 2.89 184.44 7.18 184.44 7.18"/>
        <path class="cls-9" d="M179.17,8.35c7.79,0,14.11,6.31,14.11,14.1s-6.32,14.11-14.11,14.11-14.11-6.31-14.11-14.11,6.31-14.1,14.11-14.1h0Z"/>
      </g>
    </g>
  </g>
</svg>