<?xml version="1.0" encoding="UTF-8"?>
<svg id="Layer_2" data-name="Layer 2" xmlns="http://www.w3.org/2000/svg" xmlns:xlink="http://www.w3.org/1999/xlink" viewBox="0 0 206.54 109.3">
  <defs>
    <style>
      .cls-1 {
        fill: url(#linear-gradient-5);
      }

      .cls-1, .cls-2, .cls-3, .cls-4, .cls-5, .cls-6, .cls-7, .cls-8, .cls-9, .cls-10 {
        fill-rule: evenodd;
      }

      .cls-2 {
        fill: url(#linear-gradient-7);
      }

      .cls-3 {
        fill: url(#linear-gradient-8);
      }

      .cls-4 {
        fill: url(#linear-gradient-2);
      }

      .cls-5 {
        fill: url(#linear-gradient-3);
      }

      .cls-6 {
        fill: url(#linear-gradient-4);
      }

      .cls-7 {
        fill: url(#linear-gradient-9);
      }

      .cls-8 {
        fill: url(#linear-gradient-6);
      }

      .cls-9 {
        fill: url(#linear-gradient-10);
      }

      .cls-10 {
        fill: url(#linear-gradient);
      }
    </style>
    <linearGradient id="linear-gradient" x1="0" y1="54.65" x2="109.79" y2="54.65" gradientUnits="userSpaceOnUse">
      <stop offset="0" stop-color="#4f4e53"/>
      <stop offset="1" stop-color="#000"/>
    </linearGradient>
    <linearGradient id="linear-gradient-2" x1="56.51" y1="38.64" x2="68.19" y2="38.64" xlink:href="#linear-gradient"/>
    <linearGradient id="linear-gradient-3" x1="51.89" y1="33.04" x2="75.57" y2="33.04" xlink:href="#linear-gradient"/>
    <linearGradient id="linear-gradient-4" x1="98" y1="74.14" x2="104.48" y2="74.14" xlink:href="#linear-gradient"/>
    <linearGradient id="linear-gradient-5" x1="95.42" y1="71.03" x2="108.56" y2="71.03" xlink:href="#linear-gradient"/>
    <linearGradient id="linear-gradient-6" x1="96.72" x2="206.54" xlink:href="#linear-gradient"/>
    <linearGradient id="linear-gradient-7" x1="153.24" y1="38.64" x2="164.92" y2="38.64" xlink:href="#linear-gradient"/>
    <linearGradient id="linear-gradient-8" x1="148.62" y1="33.04" x2="172.31" y2="33.04" xlink:href="#linear-gradient"/>
    <linearGradient id="linear-gradient-9" x1="194.74" y1="74.14" x2="201.2" y2="74.14" xlink:href="#linear-gradient"/>
    <linearGradient id="linear-gradient-10" x1="192.17" y1="71.03" x2="205.3" y2="71.03" xlink:href="#linear-gradient"/>
  </defs>
  <g id="Layer_1-2" data-name="Layer 1">
    <g>
      <g>
        <path class="cls-10" d="M6.52,99.98h24.59v-11.32h3.47l1.48-28.73h7.29l1.49,28.73h3.16v11.32h37.16v-2.05h1.66l.73-13.9h3.51l.71,13.9h1.52v2.05h13.58v9.31H6.52v-9.31h0ZM89.27,75.6c-1.12,0-2.03.92-2.03,2.04s.91,2.03,2.03,2.03,2.06-.9,2.06-2.03-.92-2.04-2.06-2.04h0ZM94.35,78.39c.03-.26.05-.5.05-.75,0-2.41-1.65-4.41-3.87-4.97v-1.27l3.91-2.35-3.98-13.86-3.05-.17v17.84c-1.91.75-3.24,2.6-3.24,4.76,0,.62.08,1.21.31,1.75l-1.05.71-4.13-1.91-9.23,11.08,1.6,2.62,14.73-10.03c.83.56,1.81.88,2.87.88,1.46,0,2.75-.59,3.69-1.55l1.08.63.1,4.55,13.99,3.48,1.66-2.56-15.44-8.9h0ZM39.7,42.49c2.34,0,4.22,1.89,4.22,4.22s-1.88,4.23-4.22,4.23-4.22-1.89-4.22-4.23,1.9-4.22,4.22-4.22h0ZM50.19,48.27c.07-.5.1-1.02.1-1.55,0-4.96-3.41-9.1-8-10.26v-2.6l8.07-4.84L42.11.34l-6.3-.34v36.87c-3.92,1.54-6.69,5.38-6.69,9.84,0,1.29.23,2.5.65,3.64l-2.16,1.46-8.53-3.96L0,70.79l3.26,5.39,30.49-20.71c1.71,1.15,3.75,1.83,5.95,1.83,2.99,0,5.68-1.25,7.61-3.22l2.23,1.3.17,9.42,28.96,7.19,3.42-5.28-31.91-18.44h0Z"/>
        <path class="cls-4" d="M56.51,27.36c11.34,3.19,14.08,14.08,9.7,22.55,1.92-7.21.12-15.14-8.35-17.51-.44-1.69-.89-3.36-1.35-5.04h0Z"/>
        <path class="cls-5" d="M51.89,11.55c23.1,5.14,29.4,25.23,18.49,42.99,5-13.79.99-29.46-15.93-33.4-.83-3.21-1.7-6.4-2.56-9.6Z"/>
        <path class="cls-6" d="M98,67.88c.24.93.5,1.85.75,2.78,4.7,1.33,5.7,5.73,4.63,9.73,2.43-4.7.92-10.74-5.38-12.51h0Z"/>
        <path class="cls-1" d="M95.42,59.1c.49,1.76.96,3.54,1.44,5.31,9.39,2.19,11.6,10.89,8.83,18.54,6.04-9.85,2.55-21-10.27-23.85h0Z"/>
      </g>
      <g>
        <path class="cls-8" d="M103.26,99.98h24.6v-11.32h3.45l1.47-28.73h7.29l1.49,28.73h3.15v11.32h37.16v-2.05h1.67l.72-13.9h3.52l.72,13.9h1.52v2.05h13.58v9.31h-100.33v-9.31h0ZM186.01,75.6c-1.11,0-2.05.92-2.05,2.04s.94,2.03,2.05,2.03,2.05-.9,2.05-2.03-.92-2.04-2.05-2.04h0ZM191.09,78.39c.04-.26.06-.5.06-.75,0-2.41-1.65-4.41-3.88-4.97v-1.27l3.91-2.35-3.99-13.86-3.05-.17v17.84c-1.9.75-3.23,2.6-3.23,4.76,0,.62.11,1.21.31,1.75l-1.05.71-4.12-1.91-9.23,11.08,1.59,2.62,14.74-10.03c.82.56,1.81.88,2.87.88,1.45,0,2.75-.59,3.68-1.55l1.09.63.09,4.55,14,3.48,1.67-2.56-15.45-8.9h0ZM136.45,42.49c2.32,0,4.22,1.89,4.22,4.22s-1.9,4.23-4.22,4.23-4.23-1.89-4.23-4.23,1.89-4.22,4.23-4.22h0ZM146.92,48.27c.07-.5.09-1.02.09-1.55,0-4.96-3.38-9.1-7.99-10.26v-2.6l8.07-4.84L138.84.34l-6.3-.34v36.87c-3.92,1.54-6.69,5.38-6.69,9.84,0,1.29.23,2.5.64,3.64l-2.14,1.46-8.54-3.96-19.09,22.94,3.27,5.39,30.48-20.71c1.71,1.15,3.76,1.83,5.97,1.83,2.98,0,5.66-1.25,7.59-3.22l2.25,1.3.16,9.42,28.95,7.19,3.42-5.28-31.91-18.44h0Z"/>
        <path class="cls-2" d="M153.24,27.36c11.34,3.19,14.08,14.08,9.71,22.55,1.92-7.21.11-15.14-8.35-17.51-.45-1.69-.91-3.36-1.36-5.04h0Z"/>
        <path class="cls-3" d="M148.62,11.55c23.1,5.14,29.41,25.23,18.49,42.99,5-13.79.99-29.46-15.92-33.4-.86-3.21-1.72-6.4-2.57-9.6Z"/>
        <path class="cls-7" d="M194.74,67.88c.25.93.49,1.85.76,2.78,4.69,1.33,5.69,5.73,4.61,9.73,2.43-4.7.93-10.74-5.36-12.51h0Z"/>
        <path class="cls-9" d="M192.17,59.1c.46,1.76.95,3.54,1.42,5.31,9.39,2.19,11.59,10.89,8.83,18.54,6.05-9.85,2.56-21-10.25-23.85h0Z"/>
      </g>
    </g>
  </g>
</svg>