<?xml version="1.0" encoding="UTF-8"?>
<svg id="Layer_2" data-name="Layer 2" xmlns="http://www.w3.org/2000/svg" viewBox="0 0 191.98 100.87">
  <defs>
    <style>
      .cls-1 {
        fill: #ccc;
      }
    </style>
  </defs>
  <g id="Layer_1-2" data-name="Layer 1">
    <g>
      <path class="cls-1" d="M27.1,53.11h8.58c1.54,0,2.78-1.25,2.78-2.78s-1.25-2.78-2.78-2.78h-8.58c-1.54,0-2.78,1.25-2.78,2.78s1.25,2.78,2.78,2.78ZM19.05,35.21c0-1.54-1.25-2.78-2.78-2.78H2.78c-1.54,0-2.78,1.25-2.78,2.78s1.25,2.78,2.78,2.78h13.48c1.54,0,2.78-1.25,2.78-2.78ZM27.1,37.99h4.7c1.54,0,2.78-1.25,2.78-2.78s-1.25-2.78-2.78-2.78h-4.7c-1.54,0-2.78,1.25-2.78,2.78s1.25,2.78,2.78,2.78ZM85.52,18.7s0,0,0,0c0,0,0,0,0,0h0ZM42.01,37.99h0s51.1,0,51.1,0c2.81,0,5.76-.1,8.7-.63,1.47-.26,2.94-.64,4.38-1.17,1.44-.53,2.85-1.22,4.19-2.11,2.63-1.74,4.87-4.06,6.53-6.75,1.65-2.69,2.72-5.76,2.93-9,.02-.36.03-.72.03-1.08,0-3.09-.82-6.14-2.32-8.82-.75-1.34-1.67-2.58-2.76-3.68-1.09-1.1-2.34-2.06-3.75-2.81C108.49.6,105.68,0,102.91,0c-1.77,0-3.53.24-5.22.71-1.84.51-3.63,1.27-5.27,2.32-1.64,1.04-3.14,2.37-4.35,3.97-.92,1.22-1.65,2.58-2.15,4.03-.5,1.45-.78,2.98-.78,4.54,0,1.04.12,2.09.39,3.13.55,2.11,1.67,4.01,3.19,5.52.76.75,1.63,1.41,2.59,1.93.96.52,2.01.91,3.13,1.11.58.11,1.17.16,1.75.16,1.99,0,3.91-.58,5.57-1.62.83-.52,1.59-1.16,2.24-1.92.65-.76,1.2-1.64,1.58-2.62.56-1.43-.15-3.05-1.58-3.6-1.43-.56-3.05.15-3.6,1.58-.14.36-.35.7-.62,1.01-.4.47-.96.88-1.59,1.17-.63.29-1.33.44-1.99.44-.26,0-.51-.02-.75-.07-.5-.09-1-.27-1.47-.53-.71-.39-1.38-.96-1.91-1.65-.53-.69-.93-1.49-1.14-2.3h0c-.14-.56-.21-1.14-.21-1.74,0-.9.16-1.82.47-2.72.31-.89.77-1.75,1.33-2.5.77-1.02,1.76-1.91,2.89-2.63,1.14-.72,2.42-1.28,3.76-1.65,1.22-.33,2.5-.51,3.75-.51,1.97,0,3.88.43,5.51,1.3.88.47,1.69,1.08,2.41,1.81,1.08,1.09,1.96,2.44,2.55,3.92.6,1.48.92,3.08.92,4.66,0,.25,0,.49-.02.73-.14,2.24-.89,4.45-2.11,6.44-1.22,1.99-2.91,3.73-4.86,5.02-.95.63-1.96,1.13-3.04,1.52-1.62.6-3.4.97-5.28,1.18-1.88.21-3.86.27-5.87.27h-51.1c-1.54,0-2.78,1.25-2.78,2.78s1.25,2.78,2.78,2.78ZM19.87,50.33c0-1.54-1.25-2.78-2.78-2.78h-2.25c-1.54,0-2.78,1.25-2.78,2.78s1.25,2.78,2.78,2.78h2.25c1.54,0,2.78-1.25,2.78-2.78ZM55.42,50.33c0-1.54-1.25-2.78-2.78-2.78h-8.48c-1.54,0-2.78,1.25-2.78,2.78s1.25,2.78,2.78,2.78h8.48c1.54,0,2.78-1.25,2.78-2.78ZM157.62,23.56c-.75-1.34-1.67-2.58-2.76-3.68-1.09-1.1-2.34-2.06-3.75-2.81-2.54-1.36-5.36-1.96-8.13-1.96-1.77,0-3.53.24-5.22.71-1.84.51-3.63,1.27-5.27,2.32-1.64,1.04-3.14,2.37-4.35,3.97-.92,1.22-1.65,2.58-2.15,4.03-.5,1.45-.78,2.98-.78,4.54,0,1.04.12,2.09.39,3.13h0s0,0,0,0c0,0,0,0,0,0,.55,2.11,1.67,4.01,3.19,5.52.76.75,1.63,1.41,2.59,1.93.96.52,2.01.91,3.13,1.11.58.11,1.17.16,1.75.16,1.99,0,3.91-.58,5.57-1.62.83-.52,1.59-1.16,2.24-1.92.65-.76,1.2-1.64,1.58-2.62.56-1.43-.15-3.05-1.58-3.6s-3.05.15-3.6,1.58c-.14.36-.35.7-.62,1.01-.4.47-.96.88-1.59,1.17-.63.29-1.33.44-1.99.44-.26,0-.51-.02-.75-.07-.5-.09-1-.27-1.47-.53-.71-.39-1.38-.96-1.91-1.65-.53-.69-.93-1.49-1.14-2.3h0c-.14-.56-.21-1.14-.21-1.74,0-.9.16-1.82.47-2.72.31-.89.77-1.75,1.33-2.5.77-1.02,1.76-1.91,2.89-2.63,1.14-.72,2.42-1.28,3.76-1.65,1.22-.33,2.5-.51,3.75-.51,1.97,0,3.88.43,5.51,1.3.88.47,1.69,1.08,2.41,1.81,1.08,1.09,1.96,2.44,2.55,3.92.6,1.48.92,3.08.92,4.66,0,.25,0,.49-.02.73-.14,2.24-.89,4.45-2.11,6.44-1.22,1.99-2.91,3.73-4.86,5.02-.95.63-1.96,1.13-3.04,1.52-1.62.6-3.4.97-5.28,1.18-1.88.21-3.86.27-5.87.27H61.62c-1.54,0-2.78,1.25-2.78,2.78s1.25,2.78,2.78,2.78h71.56c2.81,0,5.76-.1,8.7-.63,1.47-.26,2.94-.64,4.38-1.17,1.44-.53,2.85-1.22,4.19-2.11,2.63-1.74,4.87-4.06,6.53-6.75,1.65-2.69,2.72-5.76,2.93-9,.02-.36.03-.72.03-1.08,0-3.09-.82-6.14-2.32-8.82ZM26,62.88h-6.83c-1.54,0-2.78,1.25-2.78,2.78s1.25,2.78,2.78,2.78h6.83c1.54,0,2.78-1.25,2.78-2.78s-1.25-2.78-2.78-2.78ZM124.49,73.52c-1.66-2.69-3.9-5-6.53-6.75-1.34-.89-2.75-1.58-4.19-2.11-2.16-.8-4.38-1.24-6.58-1.49-2.2-.25-4.39-.31-6.5-.31h-49.28c-1.54,0-2.78,1.25-2.78,2.78s1.25,2.78,2.78,2.78h49.28c2.67,0,5.31.1,7.72.54,1.21.22,2.36.51,3.44.91,1.08.4,2.1.9,3.04,1.52,1.95,1.29,3.64,3.03,4.86,5.02,1.22,1.99,1.97,4.2,2.11,6.44.02.24.02.48.02.73,0,2.1-.57,4.25-1.61,6.09-.52.92-1.15,1.76-1.87,2.49-.72.73-1.53,1.34-2.41,1.81-1.63.87-3.54,1.3-5.51,1.3-1.26,0-2.53-.18-3.75-.51-1.34-.37-2.62-.92-3.76-1.65-1.14-.72-2.12-1.61-2.89-2.63-.57-.75-1.02-1.61-1.33-2.5-.31-.89-.47-1.82-.47-2.72,0-.6.07-1.18.21-1.74h0c.27-1.08.89-2.14,1.71-2.95.41-.4.86-.74,1.34-1,.48-.26.97-.43,1.47-.53.24-.04.49-.07.75-.07.88,0,1.83.28,2.6.76.38.24.72.53.99.84.27.32.48.65.62,1.01.56,1.43,2.17,2.14,3.6,1.58,1.43-.56,2.14-2.17,1.58-3.6-.38-.98-.93-1.86-1.58-2.62-.98-1.14-2.2-2.02-3.53-2.62-1.33-.6-2.79-.93-4.28-.93-.58,0-1.17.05-1.75.16-1.12.2-2.17.59-3.13,1.11-1.44.78-2.67,1.86-3.66,3.13-.98,1.27-1.72,2.73-2.12,4.32,0,0,0,0,0,0h0c-.27,1.04-.39,2.09-.39,3.13,0,1.56.28,3.09.78,4.54.5,1.45,1.23,2.81,2.15,4.03,1.21,1.61,2.71,2.93,4.35,3.97,1.64,1.04,3.43,1.81,5.27,2.32,1.69.46,3.45.71,5.22.71,2.77,0,5.59-.6,8.13-1.96,1.4-.75,2.66-1.71,3.75-2.81,1.63-1.65,2.9-3.62,3.76-5.75.86-2.13,1.32-4.43,1.33-6.74,0-.36-.01-.72-.03-1.08-.21-3.24-1.27-6.31-2.93-9ZM40.17,62.88h-4.7c-1.54,0-2.78,1.25-2.78,2.78s1.25,2.78,2.78,2.78h4.7c1.54,0,2.78-1.25,2.78-2.78s-1.25-2.78-2.78-2.78Z"/>
      <g>
        <circle class="cls-1" cx="143.8" cy="62.52" r="2.53"/>
        <circle class="cls-1" cx="172.4" cy="60.68" r="2.53"/>
        <circle class="cls-1" cx="165.26" cy="50.78" r="2.31"/>
        <circle class="cls-1" cx="178.04" cy="46.16" r="2.31"/>
        <circle class="cls-1" cx="189.66" cy="64.87" r="2.31"/>
        <circle class="cls-1" cx="173.41" cy="35.61" r="2.53"/>
        <circle class="cls-1" cx="179.98" cy="27.26" r="2.53"/>
        <circle class="cls-1" cx="166.86" cy="21.51" r="2.31"/>
        <circle class="cls-1" cx="147.33" cy="89.17" r="2.53"/>
        <circle class="cls-1" cx="170.83" cy="81.75" r="2.53"/>
        <circle class="cls-1" cx="157.7" cy="76" r="2.31"/>
        <circle class="cls-1" cx="159.32" cy="10.83" r="2.31"/>
      </g>
    </g>
  </g>
</svg>