<?xml version="1.0" encoding="UTF-8"?>
<svg id="Layer_2" data-name="Layer 2" xmlns="http://www.w3.org/2000/svg" width="88.56" height="85.53" viewBox="0 0 88.56 85.53">
  <defs>
    <style>
      .cls-1 {
        fill: #31194e;
      }
    </style>
  </defs>
  <g id="Layer_1-2" data-name="Layer 1">
    <g>
      <path class="cls-1" d="M88.56,55.86h-13.8s-.93,0-.93,0L71.73,0h-11.01l-2.1,55.86h-.96l-10.4-43.43h-29.8L0,85.36h34.56v.17h53.99v-21.93h0v-7.74ZM62.44,1.79h7.57l.14,3.66h-7.84l.14-3.66ZM62.17,9.09h8.11l1.76,46.77h-11.63c.25-6.53,1.76-46.77,1.76-46.77ZM74.76,57.65v4.16h-38.41v-4.16h38.41ZM16.9,22.48h25.83v-1.79h-25.41l1.55-6.47h26.98l9.97,41.64h-21.26v12.76H5.84l11.05-46.15ZM34.58,72.61l-5.89,11.88h-.01c-.15.3-.46.49-.79.49h0c-.33,0-.64-.18-.79-.48l-6.47-12.51-6.11,12.34c-.15.3-.46.49-.79.49h0c-.33,0-.64-.18-.79-.48l-7.28-14.07c-.23-.44-.05-.98.38-1.2.44-.23.98-.05,1.2.38l6.47,12.51,6.11-12.34s0,0,0-.01c.02-.03.04-.07.06-.1.01-.02.02-.04.04-.05.02-.02.05-.05.07-.07.02-.02.04-.04.05-.05.02-.02.05-.04.07-.05s.05-.04.07-.05c0,0,.01,0,.02-.01.02-.01.04-.02.07-.02.02-.01.05-.02.08-.03.03-.01.07-.02.1-.02.02,0,.05-.01.07-.01h.18s.07.01.1.02c.02,0,.05.01.08.02.04.01.07.02.1.04.02,0,.04.01.05.02,0,0,0,0,.01,0,.03.02.06.04.09.05.02.01.04.02.06.04.02.02.04.04.07.06.02.02.04.04.07.07.02.02.03.04.04.06.02.03.04.06.06.09h.01s6.47,12.52,6.47,12.52l6.11-12.34c.12-.24.34-.41.58-.46v3.31ZM36.35,83.74v-20.14h38.41v20.14h-38.41Z"/>
      <rect class="cls-1" x="42.73" y="69.51" width="4.55" height="4.37"/>
      <rect class="cls-1" x="49.76" y="69.51" width="4.55" height="4.37"/>
      <rect class="cls-1" x="56.8" y="69.51" width="4.55" height="4.37"/>
      <rect class="cls-1" x="63.84" y="69.51" width="4.55" height="4.37"/>
    </g>
  </g>
</svg>