<?xml version="1.0" encoding="UTF-8"?>
<svg id="Layer_2" data-name="Layer 2" xmlns="http://www.w3.org/2000/svg" width="76.88" height="90.17" viewBox="0 0 76.88 90.17">
  <defs>
    <style>
      .cls-1 {
        fill: #31194e;
        opacity: .2;
      }
    </style>
  </defs>
  <g id="Layer_1-2" data-name="Layer 1">
    <path class="cls-1" d="M62.05,64.38h-8.95v-25.84h-23.3L26.25,0h-15.07l-3.54,38.55H0v51.63h76.88v-25.79h-14.83ZM1.89,74.19h58.27v6.03H1.89v-6.03ZM60.16,72.31H1.89v-6.03h58.27v6.03ZM1.89,57.32h34.7v7.06H1.89v-7.06ZM36.59,55.43H1.89v-6.04h34.7v6.04ZM24.53,1.89l.47,5.08h-12.56l.47-5.08h11.62ZM11.87,13.24h13.71l2.33,25.31H9.54l2.33-25.31ZM7.47,40.43h0s22.5,0,22.5,0h0s6.62,0,6.62,0v7.07H1.89v-7.07h5.58ZM1.89,88.28v-6.17h58.27v6.17H1.89Z"/>
  </g>
</svg>