<?xml version="1.0" encoding="UTF-8"?>
<svg id="Layer_2" data-name="Layer 2" xmlns="http://www.w3.org/2000/svg" width="98.02" height="94.64" viewBox="0 0 98.02 94.64">
  <defs>
    <style>
      .cls-1 {
        opacity: .2;
      }

      .cls-2 {
        fill: #31194e;
      }
    </style>
  </defs>
  <g id="Layer_1-2" data-name="Layer 1">
    <g class="cls-1">
      <rect class="cls-2" x="52.18" y="70.88" width="4.55" height="4.66"/>
      <rect class="cls-2" x="59.22" y="70.88" width="4.55" height="4.66"/>
      <rect class="cls-2" x="66.25" y="70.88" width="4.55" height="4.66"/>
      <rect class="cls-2" x="73.29" y="70.88" width="4.55" height="4.66"/>
      <path class="cls-2" d="M86.01,64.97h0s-1.79,0-1.79,0h-7.64L61.02,0H22.62L0,94.46h44.02v.17h54v-29.67h-12.01ZM84.22,66.76v13.15h-38.41v-4.67h0v-.6h0v-7.89h38.41ZM21.45,12.55h33.87v-1.79H21.88l2.14-8.97h35.58l15.13,63.19h-30.72v8.23H6.93L21.45,12.55ZM44.03,78.85l-7.24,14.62c-.15.3-.46.49-.79.49v.02h-.02c-.33,0-.64-.18-.79-.48l-8.67-16.77-8.2,16.56c-.15.3-.46.49-.79.49h0c-.33,0-.64-.18-.79-.48l-9.48-18.34c-.23-.44-.05-.98.38-1.2.44-.23.98-.05,1.2.38l8.67,16.76,8.2-16.56s0,0,0-.01c.02-.03.04-.07.06-.1.01-.02.02-.04.04-.05.02-.02.05-.05.07-.07l.05-.05s.05-.04.07-.05c.02-.02.05-.04.08-.05,0,0,.01,0,.02-.01.02-.01.04-.02.06-.02.03-.01.06-.02.09-.04.03,0,.06-.01.08-.02.03,0,.05-.01.08-.02h.17s.06,0,.09.01c.03,0,.05.01.08.02.04.01.07.02.1.04.02,0,.04.01.05.02,0,0,0,0,.01,0,.03.02.06.04.1.06.02.01.04.02.06.04.02.02.04.04.07.07.02.02.04.04.06.06s.03.04.04.06c.02.03.04.05.05.09,0,0,0,0,.01.01l8.67,16.76,8.06-16.27v4.03ZM67.29,92.86v-6.84h-4.55v6.84h-16.93v-11.15h38.41v11.15h-16.93Z"/>
    </g>
  </g>
</svg>