<?xml version="1.0" encoding="UTF-8"?>
<svg id="Layer_2" data-name="Layer 2" xmlns="http://www.w3.org/2000/svg" width="107.95" height="84.26" viewBox="0 0 107.95 84.26">
  <defs>
    <style>
      .cls-1 {
        opacity: .2;
      }

      .cls-2 {
        fill: #31194e;
      }
    </style>
  </defs>
  <g id="Layer_1-2" data-name="Layer 1">
    <g class="cls-1">
      <path class="cls-2" d="M95.6,32.81c-2.24-9.31-7.61-17.7-15.12-23.62C72.95,3.26,63.54,0,53.98,0,34.11,0,16.99,13.49,12.35,32.81L0,84.26h107.95l-12.35-51.45ZM16.62,71.84c-1.63,0-2.79-.29-3.77-.71l5.07-9.35h7.29l-5.14,9.48c-.91.35-1.99.58-3.45.58ZM40.45,33.69h-7.28l5.55-10.23c1.88.71,4.02,1.29,6.36,1.71l-4.62,8.52ZM32.19,35.48h7.28l-1.86,3.42h-4.64v8.56l-6.8,12.55h-7.29l13.3-24.52ZM65.01,40.68v22.85h-30.25v-22.85h30.25ZM91.43,71.84h0c-2.86,0-4.27-.88-5.76-1.81-1.56-.98-3.34-2.08-6.71-2.08s-5.15,1.11-6.71,2.08c-1.49.93-2.9,1.81-5.76,1.81s-4.27-.88-5.76-1.81c-1.56-.98-3.34-2.08-6.71-2.08s-5.14,1.11-6.71,2.08c-1.49.93-2.9,1.81-5.76,1.81s-4.27-.88-5.76-1.81c-1.56-.98-3.34-2.08-6.71-2.08-2.96,0-4.68.85-6.12,1.72l10.01-18.46v14.12h47.8v-26.43h-41.13l7.29-13.43c2.22.3,4.58.47,7.03.47,12.87,0,23.29-4.53,23.29-10.11s-10.37-11.99-23.23-11.99c-9.01,0-16.85,3.15-20.74,6.95.29.21.53.45.75.67.57.56,1.02,1,1.97,1s1.4-.44,1.97-1c.61-.6,1.36-1.35,2.81-1.35s2.19.74,2.81,1.35c.57.56,1.02,1,1.97,1s1.4-.44,1.97-1.01c.61-.6,1.36-1.35,2.81-1.35s2.2.74,2.81,1.35c.57.56,1.02,1,1.97,1s1.4-.44,1.97-1c.61-.6,1.36-1.35,2.81-1.35s2.2.74,2.81,1.35c.57.56,1.02,1,1.97,1,.87,0,1.32-.36,1.84-.88.24-.23.61-.23.84.01.23.24.23.61-.01.84-.63.61-1.36,1.22-2.67,1.22-1.44,0-2.19-.74-2.81-1.35-.57-.56-1.02-1.01-1.97-1.01s-1.4.44-1.97,1c-.61.6-1.36,1.35-2.81,1.35s-2.19-.74-2.81-1.35c-.57-.56-1.02-1.01-1.97-1.01s-1.4.44-1.97,1c-.61.6-1.36,1.35-2.81,1.35s-2.19-.74-2.81-1.35c-.57-.56-1.02-1-1.97-1s-1.4.44-1.97,1c-.61.6-1.36,1.35-2.81,1.35s-2.19-.74-2.81-1.35c-.25-.24-.48-.46-.73-.64-1.15,1.36-1.79,2.79-1.79,4.16,0,2.69,2.42,5.14,6.37,6.95l-25.76,47.53c-.14-.08-.27-.17-.41-.26-1.36-.85-2.78-1.73-5.13-1.99l8.36-34.82C18.53,14.72,34.94,1.79,53.98,1.79c9.16,0,18.18,3.13,25.39,8.8,7.2,5.68,12.34,13.71,14.49,22.64l8.36,34.82c-2.31.29-3.69,1.14-5.02,1.98-1.5.93-2.9,1.81-5.77,1.81ZM47.34,20.25c0-.32.27-.59.59-.59.95,0,1.4-.44,1.97-1,.61-.6,1.36-1.35,2.81-1.35s2.19.74,2.81,1.35c.57.56,1.02,1,1.97,1s1.4-.44,1.97-1.01c.61-.6,1.36-1.35,2.81-1.35s2.2.74,2.81,1.35c.57.56,1.02,1,1.97,1,.33,0,.6.27.6.6s-.27.6-.6.6c-1.44,0-2.19-.74-2.81-1.35-.57-.56-1.02-1.01-1.97-1.01s-1.4.44-1.97,1c-.61.6-1.36,1.35-2.81,1.35s-2.19-.74-2.81-1.35c-.57-.56-1.02-1-1.97-1s-1.4.44-1.97,1c-.61.6-1.36,1.35-2.81,1.35-.33,0-.59-.26-.59-.59Z"/>
      <polygon class="cls-2" points="48.37 61.39 55.36 49.83 49.65 49.83 52.26 42.84 46.05 42.84 44.62 53.6 48.86 53.6 48.37 61.39"/>
    </g>
  </g>
</svg>