<?xml version="1.0" encoding="UTF-8"?>
<svg id="Layer_2" data-name="Layer 2" xmlns="http://www.w3.org/2000/svg" width="97.81" height="78.85" viewBox="0 0 97.81 78.85">
  <defs>
    <style>
      .cls-1 {
        fill: #31194e;
      }
    </style>
  </defs>
  <g id="Layer_1-2" data-name="Layer 1">
    <g id="Vrstva_2" data-name="Vrstva 2">
      <path class="cls-1" d="M81.49.12l-62.36-.12v10.91h5.84s-4.06,12.64-4.06,12.64c-2.73,1.6-4.75,4.12-5.71,7.16L0,78.85h97.81V.12h-16.31ZM20.93,9.13V1.79l59.68.11v7.23H25.32s-4.4.01-4.4.01h0ZM26.21,10.03h0s0,0,0,0ZM26.86,10.92h53.4l-3.49,10.84h-3.6v-8.05h-7.24v8.05h-3.96v-8.05h-7.24v8.05h-3.96v-8.05h-7.24v8.05h-3.96v-8.05h-7.24v8.05h-4.89c-1.46,0-2.92.26-4.29.74l3.72-11.59h0ZM2.44,77.06l14.49-45.82c.88-2.78,2.78-5.06,5.36-6.42,1.57-.83,3.35-1.28,5.15-1.28h7.27c-2.65,1.57-4.7,4.06-5.68,7.16l-14.65,46.36H2.44ZM16.23,77.06l14.48-45.81c1.46-4.61,5.68-7.7,10.51-7.7h7.26c-2.65,1.57-4.7,4.06-5.68,7.16l-14.65,46.36h-11.92ZM30.03,77.06l14.48-45.82c1.45-4.61,5.68-7.7,10.51-7.7h7.26c-2.64,1.57-4.7,4.06-5.67,7.16l-14.66,46.36h-11.92ZM58.31,31.24c1.45-4.61,5.67-7.7,10.5-7.7h7.39l-17.23,53.52h-15.14l14.48-45.82h0Z"/>
    </g>
  </g>
</svg>