<?xml version="1.0" encoding="UTF-8"?>
<svg id="Layer_2" data-name="Layer 2" xmlns="http://www.w3.org/2000/svg" width="54.64" height="93.68" viewBox="0 0 54.64 93.68">
  <defs>
    <style>
      .cls-1 {
        fill: #31194e;
      }
    </style>
  </defs>
  <g id="Layer_1-2" data-name="Layer 1">
    <g>
      <path class="cls-1" d="M30.67,25.46c-1.81,0-3.28,1.47-3.28,3.28s1.47,3.28,3.28,3.28,3.28-1.47,3.28-3.28-1.47-3.28-3.28-3.28Z"/>
      <path class="cls-1" d="M48.29,22.18v-.02s-8.57,0-8.57,0l6.61-11.66c.95-1.73,1.14-3.8.51-5.67-.63-1.88-2.03-3.41-3.82-4.21-1.81-.8-3.88-.82-5.7-.04-1.81.78-3.23,2.3-3.89,4.17l-6.4,19.02-20.08.17c-1.98.04-3.86.92-5.17,2.39C.47,27.81-.17,29.78.04,31.75c.2,1.97,1.23,3.77,2.81,4.95s3.6,1.64,5.56,1.28l19.68-3.96.24.41-2.3,57.47h-11.11v1.79h37.68v-1.79h-12.11l-1.59-39.7c1.02,1.22,2.44,2.09,4.02,2.41.46.1.94.14,1.4.14,1.48,0,2.95-.46,4.16-1.35,1.6-1.16,2.65-2.95,2.88-4.91.23-1.96-.38-3.94-1.67-5.45l-6.79-7.71h5.39c3.51,0,6.36-2.85,6.36-6.36v-.44c0-3.51-2.85-6.36-6.36-6.36ZM27.82,91.89l2.19-54.63,6.99,11.89,1.71,42.73h-10.89ZM48.36,44.21c.98,1.14,1.42,2.59,1.25,4.07h0c-.17,1.49-.94,2.79-2.15,3.68-1.22.88-2.69,1.2-4.16.9-1.47-.3-2.7-1.17-3.47-2.44l-10.83-18.4-20.92,4.21c-1.47.27-2.95-.07-4.15-.96-1.2-.89-1.95-2.21-2.1-3.7-.15-1.49.3-2.93,1.3-4.06.99-1.13,2.37-1.76,3.85-1.79l21.35-.17,6.81-20.22c.49-1.41,1.53-2.52,2.91-3.11,1.38-.59,2.89-.58,4.26.03,1.37.61,2.38,1.73,2.86,3.15.48,1.42.34,2.93-.38,4.23l-10.52,18.57,14.1,16.01Z"/>
    </g>
  </g>
</svg>