<?xml version="1.0" encoding="UTF-8"?>
<svg id="Layer_2" data-name="Layer 2" xmlns="http://www.w3.org/2000/svg" width="99.52" height="82.91" viewBox="0 0 99.52 82.91">
  <defs>
    <style>
      .cls-1 {
        opacity: .2;
      }

      .cls-2 {
        fill: #31194e;
      }
    </style>
  </defs>
  <g id="Layer_1-2" data-name="Layer 1">
    <g class="cls-1">
      <polygon class="cls-2" points="38.72 57.82 33.12 77.13 50.1 77.13 55.69 57.82 38.72 57.82"/>
      <polygon class="cls-2" points="17.88 57.82 12.29 77.13 29.27 77.13 34.86 57.82 17.88 57.82"/>
      <polygon class="cls-2" points="53.96 77.13 70.94 77.13 76.53 57.82 59.55 57.82 53.96 77.13"/>
      <polygon class="cls-2" points="56.37 55.02 61.95 35.73 44.98 35.73 39.39 55.02 56.37 55.02"/>
      <polygon class="cls-2" points="35.53 55.02 41.12 35.73 24.15 35.73 18.55 55.02 35.53 55.02"/>
      <polygon class="cls-2" points="77.2 55.02 82.79 35.73 65.81 35.73 60.23 55.02 77.2 55.02"/>
      <path class="cls-2" d="M89.88,30.95H19.74l-15.05,51.96h79.78l15.05-51.96h-9.63ZM74.68,81.13H7.07l14.01-48.39h67.61l-14.01,48.39Z"/>
      <path class="cls-2" d="M8.05,22.57l-1.72,3.21,1.57.85,1.7-3.16c1.09.51,2.28.85,3.53.95l.11,3.63,1.79-.05-.11-3.58c1.25-.11,2.44-.43,3.53-.95l1.92,3.1,1.52-.94-1.89-3.04c1.01-.7,1.88-1.58,2.59-2.58l3.21,1.72.85-1.57-3.16-1.7c.51-1.09.85-2.28.95-3.53h0l3.63-.11-.05-1.79-3.58.11c-.11-1.25-.43-2.44-.95-3.53l3.1-1.92-.94-1.52-3.04,1.89c-.7-1.01-1.58-1.88-2.58-2.59l1.72-3.21-1.57-.85-1.7,3.16c-1.09-.51-2.28-.85-3.53-.95l-.11-3.63-1.79.05.11,3.58c-1.25.11-2.44.43-3.53.95l-1.92-3.1-1.52.94,1.89,3.04c-1.01.7-1.88,1.58-2.59,2.58l-3.21-1.72-.85,1.57,3.16,1.7c-.51,1.09-.85,2.28-.95,3.53l-3.63.11.05,1.79,3.58-.11c.11,1.25.43,2.44.95,3.53l-3.1,1.92.94,1.52,3.04-1.89c.7,1.01,1.58,1.88,2.58,2.59ZM14.02,5.34c4.8,0,8.69,3.89,8.69,8.69s-3.89,8.69-8.69,8.69-8.69-3.89-8.69-8.69,3.89-8.69,8.69-8.69Z"/>
    </g>
  </g>
</svg>