<?xml version="1.0" encoding="UTF-8"?>
<svg id="Layer_2" data-name="Layer 2" xmlns="http://www.w3.org/2000/svg" width="83.02" height="83.02" viewBox="0 0 83.02 83.02">
  <defs>
    <style>
      .cls-1 {
        fill: #dbdbdb;
        stroke: #31194e;
        stroke-miterlimit: 10;
        stroke-width: 1.65px;
      }

      .cls-2 {
        fill: #31194e;
      }
    </style>
  </defs>
  <g id="Layer_1-2" data-name="Layer 1">
    <g>
      <circle class="cls-1" cx="41.51" cy="41.51" r="40.68"/>
      <g>
        <path class="cls-2" d="M40.04,27.85c-1.24,0-2.24,1-2.24,2.24s1,2.24,2.24,2.24,2.24-1,2.24-2.24-1-2.24-2.24-2.24Z"/>
        <path class="cls-2" d="M52.1,25.61h0s-5.87-.01-5.87-.01l4.52-7.98c.65-1.19.78-2.6.35-3.88-.43-1.28-1.39-2.33-2.62-2.88-1.24-.55-2.65-.56-3.9-.02-1.24.53-2.21,1.57-2.66,2.85l-4.38,13.02-13.75.11c-1.35.03-2.64.63-3.54,1.64-.89,1.01-1.33,2.36-1.19,3.71.14,1.35.84,2.58,1.92,3.39s2.47,1.13,3.8.88l13.47-2.71.16.28-1.57,39.34h-7.6v1.22h25.79v-1.22h-8.29l-1.09-27.17c.7.84,1.67,1.43,2.75,1.65.32.07.64.1.96.1,1.02,0,2.02-.32,2.85-.92,1.1-.8,1.81-2.02,1.97-3.36.16-1.34-.26-2.7-1.14-3.73l-4.65-5.28h3.69c2.4,0,4.35-1.95,4.35-4.35v-.3c0-2.4-1.95-4.35-4.35-4.35ZM38.09,73.32l1.5-37.39,4.79,8.14,1.17,29.25h-7.45ZM52.15,40.68c.67.78.97,1.77.85,2.79h0c-.12,1.02-.64,1.91-1.47,2.52-.83.6-1.84.82-2.85.62-1.01-.2-1.85-.8-2.38-1.67l-7.41-12.59-14.32,2.88c-1.01.19-2.02-.04-2.84-.66-.82-.61-1.33-1.51-1.44-2.53-.11-1.02.21-2.01.89-2.78.68-.77,1.62-1.2,2.63-1.23l14.61-.12,4.66-13.84c.34-.97,1.04-1.72,1.99-2.13.94-.4,1.98-.4,2.92.02.94.42,1.63,1.19,1.96,2.16.33.97.23,2-.26,2.9l-7.2,12.71,9.65,10.96Z"/>
      </g>
    </g>
  </g>
</svg>