<?xml version="1.0" encoding="UTF-8"?>
<svg id="Layer_2" data-name="Layer 2" xmlns="http://www.w3.org/2000/svg" width="82.7" height="82.7" viewBox="0 0 82.7 82.7">
  <defs>
    <style>
      .cls-1 {
        fill: #8cc63f;
        stroke: #31194e;
        stroke-miterlimit: 10;
        stroke-width: 1.33px;
      }

      .cls-2 {
        fill: #31194e;
        fill-rule: evenodd;
      }
    </style>
  </defs>
  <g id="Layer_1-2" data-name="Layer 1">
    <g>
      <circle class="cls-1" cx="41.35" cy="41.35" r="40.68"/>
      <path class="cls-2" d="M42.09,23.12h-20.95v1.09l1.37,1.52h18.12l1.46-1.53v-1.08ZM44.08,58.15c0,1.4,1.15,2.55,2.55,2.55,3.38,0,3.38-5.1,0-5.1-1.41,0-2.55,1.14-2.55,2.55ZM43.59,60.76h-6.32c1.28-1.49,1.3-3.68.02-5.19h6.29c-.59.7-.95,1.6-.95,2.59,0,.98.37,1.84.96,2.6h0ZM34.23,55.6c-3.41,0-3.37,5.1,0,5.1,3.38,0,3.31-5.1,0-5.1ZM31.19,60.76h-6.31c1.29-1.5,1.28-3.69.02-5.19h6.29c-1.3,1.53-1.26,3.71.01,5.19h0ZM21.84,55.6c-3.37,0-3.34,5.1,0,5.1,3.43,0,3.27-5.1,0-5.1ZM52.83,58.16c0,1.72-.7,3.28-1.84,4.41-1.13,1.13-2.7,1.84-4.41,1.84h-24.7c-1.72,0-3.28-.7-4.41-1.84-1.13-1.13-1.84-2.7-1.84-4.41s.7-3.28,1.84-4.41c1.13-1.13,2.7-1.84,4.41-1.84h24.7c1.72,0,3.28.7,4.41,1.84,1.13,1.13,1.84,2.7,1.84,4.41h0ZM46.58,62.21h-24.7c-5.17,0-5.46-8.1,0-8.1h24.7c5.38,0,5.28,8.1,0,8.1ZM64.86,50.43c-.66-.23-1.1-.64-1.32-1.23-.02-.05-.03-.1-.04-.15-.1-.66-.3-1.15-.59-1.46-.27-.28-.64-.43-1.12-.46-.41.02-.73.12-.94.3-.15.12-.26.28-.35.5v.02c-.03.07-.05.13-.07.21.1,1.01.19,2.03.24,3.04.06,1.03.09,2.07.11,3.13.09,1.53-.08,2.93-.49,4.18-.41,1.27-1.08,2.4-2,3.38l-2.97,2.92,8.52-.49c1.58-.19,3.63-1.06,5.12-2.37,1.13-.99,1.92-2.22,1.87-3.57-.04-1.18-.18-2.97-.24-3.78l-.02-.3c-.09-1.12-.48-2.04-1.12-2.68-.62-.62-1.49-.99-2.55-1.04-.82.09-1.5.04-2.03-.15h0ZM62.58,28.47l-1.85,17.39c.3-.1.64-.16,1.01-.18h.08c.66.03,1.22.2,1.69.53l5.46-19.29-.68-3.8-2.61-.46-1.02,1.91s-.03.06-.05.09l-2.03,3.81ZM66.04,28.62c-.68.04-1.25-.48-1.29-1.15-.04-.68.48-1.25,1.15-1.29.68-.04,1.25.48,1.29,1.15.04.68-.48,1.26-1.15,1.29ZM42.9,33.91l4.5-6.45,15.29-2.26-1.43,2.67c-.05.09-.09.19-.1.3l-.22,2.05-10.42,1.91c-.26.03-.49.2-.58.46l-2.14,5.49h-4.2l-.69-4.16ZM26.87,39.9c-.12-.05-.25-.07-.41-.07h-9.77c-.3,0-.56.12-.75.31s-.31.46-.31.75v6.54l3.84,3.41c.76-.25,1.57-.39,2.41-.39h24.7c.92,0,1.81.16,2.64.47l3.34-3.34c.1-.1.18-.22.24-.34.05-.12.07-.26.07-.41v-3.91c0-.14-.02-.27-.06-.39v-.03c-.06-.12-.14-.24-.25-.34l-2.64-2.64h-6.21v4.74c0,.19-.07.37-.21.51l-1.9,1.9c-.13.14-.32.22-.52.22h-10.5c-.4,0-.73-.33-.73-.73v-2.99c0-.15-.03-.29-.08-.41-.05-.12-.13-.24-.24-.35l-2.31-2.28c-.1-.1-.22-.18-.34-.23h0ZM40.33,27.18l1.92,11.66v5.11l-1.48,1.48h-9.47v-2.27c0-.35-.07-.67-.19-.98-.12-.3-.31-.57-.56-.82l-2.31-2.28c-.24-.24-.51-.41-.81-.54-.3-.12-.62-.19-.95-.19h-3.55v-11.19s17.41,0,17.41,0ZM27.87,35.39v-5.74h9.97l1.47,8.82v2.11l-6.2.05-5.24-5.24Z"/>
    </g>
  </g>
</svg>