<?xml version="1.0" encoding="UTF-8"?>
<svg id="Layer_2" data-name="Layer 2" xmlns="http://www.w3.org/2000/svg" width="83.02" height="83.02" viewBox="0 0 83.02 83.02">
  <defs>
    <style>
      .cls-1 {
        fill: #dbdbdb;
        stroke: #31194e;
        stroke-miterlimit: 10;
        stroke-width: 1.65px;
      }

      .cls-2 {
        fill: #31194e;
      }
    </style>
  </defs>
  <g id="Layer_1-2" data-name="Layer 1">
    <g>
      <circle class="cls-1" cx="41.51" cy="41.51" r="40.68"/>
      <g>
        <polygon class="cls-2" points="36.26 50.39 32.92 61.94 43.08 61.94 46.42 50.39 36.26 50.39"/>
        <polygon class="cls-2" points="23.8 50.39 20.45 61.94 30.61 61.94 33.95 50.39 23.8 50.39"/>
        <polygon class="cls-2" points="45.39 61.94 55.54 61.94 58.89 50.39 48.73 50.39 45.39 61.94"/>
        <polygon class="cls-2" points="46.82 48.71 50.17 37.17 40.01 37.17 36.66 48.71 46.82 48.71"/>
        <polygon class="cls-2" points="34.36 48.71 37.7 37.17 27.54 37.17 24.2 48.71 34.36 48.71"/>
        <polygon class="cls-2" points="59.29 48.71 62.63 37.17 52.48 37.17 49.13 48.71 59.29 48.71"/>
        <path class="cls-2" d="M66.88,34.31H24.91l-9.01,31.09h47.74l9.01-31.09h-5.76ZM57.78,64.33H17.32l8.39-28.96h40.46l-8.39,28.96Z"/>
        <path class="cls-2" d="M17.91,29.3l-1.03,1.92.94.51,1.02-1.89c.65.31,1.36.51,2.11.57l.07,2.17,1.07-.03-.07-2.14c.75-.06,1.46-.26,2.11-.57l1.15,1.85.91-.56-1.13-1.82c.6-.42,1.13-.94,1.55-1.54l1.92,1.03.51-.94-1.89-1.02c.31-.65.51-1.36.57-2.11h0l2.17-.07-.03-1.07-2.14.07c-.06-.75-.26-1.46-.57-2.11l1.85-1.15-.56-.91-1.82,1.13c-.42-.6-.94-1.13-1.54-1.55l1.03-1.92-.94-.51-1.02,1.89c-.65-.31-1.36-.51-2.11-.57l-.07-2.17-1.07.03.07,2.14c-.75.06-1.46.26-2.11.57l-1.15-1.85-.91.56,1.13,1.82c-.6.42-1.13.94-1.55,1.54l-1.92-1.03-.51.94,1.89,1.02c-.31.65-.51,1.36-.57,2.11l-2.17.07.03,1.07,2.14-.07c.06.75.26,1.46.57,2.11l-1.85,1.15.56.91,1.82-1.13c.42.6.94,1.13,1.54,1.55ZM21.49,18.98c2.87,0,5.2,2.33,5.2,5.2s-2.33,5.2-5.2,5.2-5.2-2.33-5.2-5.2,2.33-5.2,5.2-5.2Z"/>
      </g>
    </g>
  </g>
</svg>